<?xml version="1.0" encoding="UTF-8"?>
<svg id="_레이어_1" data-name="레이어 1" xmlns="http://www.w3.org/2000/svg" viewBox="0 0 100 100" role="img" width="32" height="32">
  <defs>
    <style>
      .cls-1 {
        fill: #fff;
      }

      .cls-2 {
        fill: #f9dc30;
      }
    </style>
  </defs>
  <path class="cls-1" d="m59.29,20.29c0,13.17-4.16,29.71-9.29,29.71s-9.29-16.54-9.29-29.71S44.87,2.32,50,2.32s9.29,4.8,9.29,17.97Z"/>
  <path class="cls-1" d="m35.49,22.24c9.31,9.31,18.07,23.95,14.44,27.58s-18.27-5.13-27.58-14.44c-9.31-9.31-9.77-15.65-6.14-19.28s9.96-3.17,19.28,6.14Z"/>
  <path class="cls-1" d="m20.05,40.44c13.17,0,29.71,4.16,29.71,9.29s-16.54,9.29-29.71,9.29c-13.17,0-17.97-4.16-17.97-9.29s4.8-9.29,17.97-9.29Z"/>
  <path class="cls-1" d="m22,64.24c9.31-9.31,23.95-18.07,27.58-14.44s-5.13,18.27-14.44,27.58c-9.31,9.31-15.65,9.77-19.28,6.14s-3.17-9.96,6.14-19.28Z"/>
  <path class="cls-1" d="m40.2,79.68c0-13.17,4.16-29.71,9.29-29.71s9.29,16.54,9.29,29.71c0,13.17-4.16,17.97-9.29,17.97-5.13,0-9.29-4.8-9.29-17.97Z"/>
  <path class="cls-1" d="m64,77.73c-9.31-9.31-18.07-23.95-14.44-27.58s18.27,5.13,27.58,14.44c9.31,9.31,9.77,15.65,6.14,19.28-3.63,3.63-9.96,3.17-19.28-6.14Z"/>
  <path class="cls-1" d="m79.44,59.53c-13.17,0-29.71-4.16-29.71-9.29s16.54-9.29,29.71-9.29c13.17,0,17.97,4.16,17.97,9.29,0,5.13-4.8,9.29-17.97,9.29Z"/>
  <path class="cls-1" d="m77.49,35.73c-9.31,9.31-23.95,18.07-27.58,14.44s5.13-18.27,14.44-27.58c9.31-9.31,15.65-9.77,19.28-6.14,3.63,3.63,3.17,9.96-6.14,19.28Z"/>
  <path class="cls-1" d="m35.49,22.24c9.31,9.31,18.07,23.95,14.44,27.58s-18.27-5.13-27.58-14.44c-9.31-9.31-9.77-15.65-6.14-19.28s9.96-3.17,19.28,6.14Z"/>
  <circle class="cls-2" cx="50" cy="50" r="15.07"/>
</svg>