<svg
    id="\uB808\uC774\uC5B4_1"
    xmlns="http://www.w3.org/2000/svg"
    x={0}
    y={0}
    viewBox="0 0 143.9 143.9"
    style={{
      enableBackground: "new 0 0 143.9 143.9",
    }}
    xmlSpace="preserve"
    {...props}
  >
    <style>
      {
        ".st0{stroke-linejoin:round}.st0,.st1{fill:none;stroke:#000;stroke-width:12;stroke-miterlimit:10}"
      }
    </style>
    <path
      className="st0"
      d="m-1386-153.1-53.7 53.7v69.1h109.1v-69.1c0 .1-56.1-53.7-55.4-53.7zM-1287-144.1h126v108h-126z"
    />
    <path
      className="st0"
      d="m-1287-63.1 36-36 18 18 36-36 36 36M-1024.5-153.1l25.5 25.5-57.3 57.2h-25.4v-25.4z"
    />
    <path className="st0" d="M-1035-144.1h-90v117h108v-81" />
    <path d="m-1005.9 17.8-3.1-3.1c-7-7-17.7-8.2-26-3.7v-.3h-69c-14.9 0-27 12.1-27 27v75c0 14.9 12.1 27 27 27h66c14.9 0 27-12.1 27-27v-59l5.1-5.1c8.5-8.5 8.5-22.3 0-30.8zm-10.1 6.9c4.7 4.7 4.7 12.3 0 17l-40.9 40.9c-1.2 1.2-2.9 1.9-4.6 1.9h-9.6c-2.6 0-4.7-2.1-4.7-4.7v-9.6c0-1.7.7-3.4 1.9-4.6l40.9-40.9c4.7-4.7 12.3-4.7 17 0zm-7 86c0 9.4-7.6 17.1-17.1 17.1h-61.9c-9.4 0-17.1-7.6-17.1-17.1V39.8c0-9.4 7.6-17.1 17.1-17.1h54l-35.8 35.8c-2.6 2.6-4 6-4 9.6v16.8c0 6.4 5.2 11.5 11.5 11.5h16.8c3.6 0 7.1-1.4 9.6-4l26.8-26.8v45.1z" />
    <path
      className="st0"
      d="M-855-108.1c0-24.9-20.2-45.1-45.2-45-24 .1-44 19.4-44.8 43.4-.4 11.6 3.6 22.2 10.4 30.4 8.9 10.7 16.7 22.4 23.9 34.4L-900-27l11.1-18.5c7.3-12.2 15.6-23.6 24.4-34.8 6-7.8 9.5-17.4 9.5-27.8zM-1366.4-92.9c-5.3-5.3-13.8-5.3-19.1 0l-.6.6-.6-.6c-5.3-5.3-13.8-5.3-19.1 0s-5.3 13.8 0 19.1l19.7 19.7 19.7-19.7c5.3-5.3 5.3-13.8 0-19.1z"
    />
    <path d="M-1224 101.1c-2.5 0-3.7-1.3-5.2-2.7l-21.5-21.5c-8.3-8.3-8.3-21.9 0-30.2 7.2-7.2 18.4-8.2 26.7-2.9 3.4-2.2 7.4-3.4 11.6-3.4 5.7 0 11.1 2.2 15.1 6.3 4 4 6.3 9.4 6.3 15.1s-2.2 11.1-6.3 15.1l-22.4 22.4c-1.1 1.2-2.7 1.8-4.3 1.8zm-11.5-48.7c-2.4 0-4.8.9-6.6 2.7-3.7 3.7-3.7 9.6 0 13.3l18.2 18.2 18.2-18.2c1.8-1.8 2.8-4.1 2.8-6.6s-1-4.9-2.8-6.6c-1.8-1.8-4.1-2.8-6.6-2.8s-4.9 1-6.6 2.8l-.7.7c-1.1 1.1-2.7 1.8-4.2 1.8-1.6 0-3.1-.6-4.2-1.8l-.7-.7c-2-1.9-4.4-2.8-6.8-2.8z" />
    <path d="M-1180.9 130.8h-86.2c-14.3 0-25.9-11.6-25.9-25.9V36.7c0-14.3 11.6-25.9 25.9-25.9h86.2c14.3 0 25.9 11.6 25.9 25.9v68.2c0 14.3-11.6 25.9-25.9 25.9zm-83.1-12h79.9c9.4 0 17-7.6 17-17v-62c0-9.4-7.6-17-17-17h-79.9c-9.4 0-17 7.6-17 17v61.9c0 9.4 7.6 17.1 17 17.1z" />
    <circle cx={-605.9} cy={63} r={7.8} />
    <circle cx={-575.6} cy={63} r={7.8} />
    <circle cx={-545.4} cy={63} r={7.8} />
    <path className="st0" d="M-778.5-153.1h81v126h-81z" />
    <path
      className="st0"
      d="M-760.5-135.1h45v90h-45zM-515.6-103.5c0-26.5-27-47.9-60.4-47.9-33.3 0-60.4 21.4-60.4 47.9 0 22 18.7 40.5 44.1 46.1l16.2 28.5 16.3-28.5c25.5-5.6 44.2-24.1 44.2-46.1z"
    />
    <circle cx={-605.9} cy={-104.7} r={7.8} />
    <circle cx={-575.6} cy={-104.7} r={7.8} />
    <circle cx={-545.4} cy={-104.7} r={7.8} />
    <path d="M-1352.4 131.4c-5.2 5.2-13.7 5.2-18.9 0l-19.1-19.1c-8.8-8.8-8.8-23.2 0-32.1 4.3-4.3 10-6.6 16-6.6 4.5 0 8.8 1.3 12.5 3.8 3.7-2.5 8-3.8 12.5-3.8 6.1 0 11.8 2.4 16 6.6 8.8 8.8 8.8 23.2 0 32.1l-19 19.1zm-20.7-45.8c-3.3-.4-6.5.8-8.8 3.1-4.2 4.2-4.2 10.9 0 15.1l16.6 16.6c1.9 1.9 5.1 1.9 7 0l16.6-16.6c4.2-4.2 4.2-10.9 0-15.1-2.1-2.1-5-3.2-8-3.1-2.8.1-5.4 1.4-7.3 3.4-2.6 2.6-6.8 2.6-9.5 0-1.8-1.8-4.1-3.1-6.6-3.4z" />
    <path d="M-1391.9 136.6h-25.7c-15.6 0-28.2-12.6-28.2-28.2V70.9c0-7.6 3-14.9 8.4-20.2l32-32c10.7-10.7 28-10.8 38.9-.3l35.7 34.7c2.4 2.3 2.4 6.1.1 8.5-2.3 2.4-6.1 2.4-8.5.1l-34.8-33.8c-6.7-6.5-17.3-6.4-23.9.2l-29.3 29.3c-4.3 4.3-6.6 10-6.6 16v34.2c0 9.4 7.6 17.1 17.1 17.1h24.8c3.3 0 6 2.7 6 6 0 3.2-2.7 5.9-6 5.9zM-900.1 56.2c-3.5 0-6.4 2.1-6.4 4.6V83c0 2.6 3 4.8 6.7 4.7 3.6-.1 6.3-2.3 6.3-4.9V61c0-2.6-3-4.8-6.6-4.8z" />
    <circle cx={-900} cy={41.4} r={8.6} />
    <path d="M-861.3 17.8c-10.4-10.3-24.1-16-38.7-16h-.2c-29.1.1-53.6 23.8-54.6 52.9-.5 13.5 4 26.7 12.6 37 8.4 10.1 16.4 21.6 25.1 36.2l2 3.3c6.8 11.4 23.3 11.4 30.1 0l2.4-4.1c6.7-11.1 14.8-22.8 25.8-36.8 7.6-9.7 11.6-21.4 11.6-33.7.1-14.7-5.7-28.5-16.1-38.8zm-5.6 64.6c-11.3 14.4-19.7 26.5-26.7 38.1l-.4.7c-2.7 4.5-9.3 4.5-12 0-9.1-15.2-17.5-27.2-26.3-37.8-6.6-7.9-10-18-9.7-28.3.8-22.2 19.5-40.4 41.8-40.4h.2c11.2 0 21.7 4.3 29.6 12.2 8 7.9 12.3 18.5 12.3 29.7 0 9.5-3 18.4-8.8 25.8zM-719.4 139.8h-37.4c-15.4 0-27.8-12.4-27.8-27.8V29.6c0-15.4 12.4-27.8 27.8-27.8h37.4c15.4 0 27.8 12.4 27.8 27.8V112c.1 15.3-12.4 27.8-27.8 27.8zm-36.1-12h34.9c9.4 0 17-7.6 17-17v-80c0-9.4-7.6-17-17-17h-34.9c-9.4 0-17 7.6-17 17v79.9c0 9.4 7.6 17.1 17 17.1z" />
    <path d="M-723.1 121.8H-753c-7.5 0-13.6-6.1-13.6-13.6V33.3c0-7.5 6.1-13.6 13.6-13.6h29.9c7.5 0 13.6 6.1 13.6 13.6v74.9c0 7.5-6.1 13.6-13.6 13.6zm-26.2-12h22.5c2.9 0 5.3-2.4 5.3-5.3V37.1c0-2.9-2.4-5.3-5.3-5.3h-22.5c-2.9 0-5.3 2.4-5.3 5.3v67.5c.1 2.8 2.4 5.2 5.3 5.2zM-589.3 126.7l-5.9-10.4c-.6-1-1.5-1.7-2.6-2-26.4-7.5-44.5-27.9-44.5-50.9 0-29.7 29.8-53.9 66.4-53.9s66.4 24.2 66.4 53.9c0 22.9-17.8 43.2-44 50.7-1.5.4-2.7 1.4-3.5 2.8l-5.6 9.9c-6 10.3-20.8 10.3-26.7-.1zM-576 21.5c-30 0-54.4 18.8-54.4 41.9 0 18.6 16.2 35.1 39.4 40.3 1.7.4 3.1 1.4 3.9 2.9l6.1 10.8c2.2 3.8 7.6 3.8 9.8 0l6.2-10.8c.8-1.5 2.3-2.5 3.9-2.9 23.2-5.1 39.4-21.7 39.4-40.3.1-23.1-24.3-41.9-54.3-41.9zM-387.4 96.2c-4.7 4.7-12.4 4.7-17.2 0l-33.1-33.1c-12.4-12.4-12.4-32.5 0-44.8C-426.3 6.9-408.4 6-396 15.5c12.4-9.5 30.3-8.6 41.7 2.7 12.4 12.4 12.4 32.5 0 44.8l-33.1 33.2zM-415.3 21c-5 0-10.1 1.9-13.9 5.8-7.7 7.7-7.7 20.2 0 27.9l29.6 29.6c2 2 5.3 2 7.3 0l29.6-29.6c7.7-7.7 7.7-20.2 0-27.9-7.7-7.7-20.2-7.7-27.9 0l-5.4 5.4-5.4-5.4c-3.8-3.9-8.9-5.8-13.9-5.8zM-449.1 137.4c-2.3 2.3-6.1 2.3-8.5 0l-19.7-19.7c-4.9-4.9-6.8-11.9-5-18.9.4-1.6 1-3.1 1.9-4.5 3.7-6.3 10.1-9.8 17-9.8 3.6 0 7.1 1 10.1 2.8 4.1-2.5 9.1-3.4 14.1-2.4 2.4.5 4.7 1.4 6.7 2.8 5.6 3.8 8.8 9.8 8.8 16.3 0 5.2-2 10.1-5.7 13.8-.2.1-19.7 19.6-19.7 19.6zm-14.4-41c-2 0-3.9.8-5.3 2.2-1.4 1.4-2.2 3.3-2.2 5.3s.8 3.9 2.2 5.3l13.6 13.6c1 1 2.7 1 3.7 0l13.6-13.6c1.4-1.4 2.2-3.3 2.2-5.3s-.8-3.9-2.2-5.3c-1.5-1.5-3.6-2.3-5.8-2.2-1.9.1-3.7 1-5 2.4l-4.7 4.7-4.8-4.8c-1.4-1.5-3.3-2.3-5.3-2.3z" />
    <path
      className="st1"
      d="M-358.5-140c-10-10-26.3-10-36.3 0l-1.1 1.1-1.1-1.1c-10-10-26.3-10-36.3 0-10 10-10 26.3 0 36.3l37.5 37.5 37.5-37.5c9.8-10 9.8-26.3-.2-36.3zM-433.7-68.1c-5.3-5.3-13.8-5.3-19.1 0l-.6.6-.6-.6c-5.3-5.3-13.8-5.3-19.1 0s-5.3 13.8 0 19.1l19.7 19.7 19.7-19.7c5.3-5.3 5.3-13.9 0-19.1z"
    />
    <path
      d="M-1681.5 289.7c-20.4-26-67.5-26.4-88.3-.8-11.3 13.9-10.9 32.3 1.1 45.6 3.4 3.7 7.1 7.1 11.5 9.4 2.6 1.3 3.2 2.8 2.3 5.5-1.3 4.1-2.3 8.3-3.4 12.5-.3 1.1-1.1 2.3 0 3.3 1.3 1.1 2.5.2 3.6-.5 5.4-3.6 10.8-7.2 16.1-10.9 2.3-1.6 4.6-2.1 7.4-1.9 12.4 1.2 24.2-1 35.1-7.2 13.1-7.4 21.6-18 22-33.7.1-8.1-2.6-15.1-7.4-21.3z"
      style={{
        fill: "#020202",
      }}
    />
    <path d="M-205.1 3.4h-58.1c-9.7 0-17.6 7.9-17.6 17.6v.5H-299c-9.7 0-17.6 7.9-17.6 17.6V124c0 9.7 7.9 17.6 17.6 17.6h57.9c9.7 0 17.6-7.9 17.6-17.6h18.4c9.7 0 17.6-7.9 17.6-17.6V21c-.1-9.7-7.9-17.6-17.6-17.6zm-39.2 126.1h-51.5c-4.8 0-8.7-3.9-8.7-8.7V42.3c0-4.8 3.9-8.7 8.7-8.7h51.5c4.8 0 8.7 3.9 8.7 8.7v78.5c.1 4.8-3.8 8.7-8.7 8.7zm36.2-17.5h-15.4V39.1c0-9.7-7.9-17.6-17.6-17.6h-27.7c0-3.4 2.7-6.1 6.1-6.1h54.6c4.7 0 8.6 3.8 8.6 8.6v79.4c-.1 4.7-3.9 8.6-8.6 8.6z" />
    <path className="st1" d="M-315-135.1h81v108h-81z" />
    <path className="st1" d="M-230.6-44.7h32.6v-108.5h-81.3v15.6" />
    <path d="M-33.3 23.4c-7.9-8.4-18.5-13-29.8-13-10 0-19.5 3.6-27 10.3-7.5-6.7-17-10.3-27-10.3-11.3 0-21.8 4.6-29.8 13-16.2 17.1-16.2 45 0 62.1l37.5 39.7c10.5 11.1 28.1 11.1 38.6 0l37.5-39.7c16.2-17.1 16.2-45 0-62.1zM-42 77.3-77.7 115c-6.7 7.1-18 7.1-24.7 0l-35.7-37.8c-11.9-12.6-11.9-33 0-45.6 5.6-6 13.1-9.3 21.1-9.3 7.9 0 15.4 3.3 21.1 9.3l5.9 6.3 5.9-6.3c5.6-6 13.1-9.3 21.1-9.3 7.9 0 15.4 3.3 21.1 9.3 11.8 12.6 11.8 33.1-.1 45.7z" />
    <path d="M-58.2 62.4h-3l1.9-4.8c1.2-3.1-.3-6.6-3.3-7.8-3.1-1.2-6.6.3-7.8 3.3l-5.4 13.6c-.4 1-1.9 1.1-2.4.1l-6.7-13.5c-2.1-4.2-8-4.2-10.1 0l-6.7 13.5c-.5 1-2 .9-2.4-.1l-5.4-13.6c-1.2-3.1-4.7-4.6-7.8-3.3-3.1 1.2-4.6 4.7-3.3 7.8l1.9 4.8h-3.1c-3.3 0-6 2.7-6 6s2.7 6 6 6h7.9l5 12.5c1.8 4.5 8.1 4.8 10.3.4l7.5-15c.5-1 1.8-1 2.3 0l7.5 15c2.2 4.4 8.5 4.1 10.3-.4l5-12.5h7.8c3.3 0 6-2.7 6-6s-2.7-6-6-6z" />
    <path
      className="st1"
      d="M-37.6-139.8c-14-14.9-36.8-14.9-50.8 0-.5.6-1.6 1.7-1.6 1.7s-1-1.1-1.6-1.7c-14-14.9-36.8-14.9-50.8 0s-14 39 0 53.8c.5.6 52.4 55.5 52.4 55.5S-38.1-85.4-37.6-86c14-14.8 14-38.9 0-53.8z"
    />
    <path
      className="st1"
      d="m-117.4-117.6 13.7 34.3 13.7-27.4 13.7 27.4 13.7-34.3M-127.9-98.9h14.7M-66.9-98.9h14.7"
    />
    <path d="m90.6 68.6 22.8-22.8c4.2-4.2 4.7-11.2.6-15.5-4.2-4.4-11.2-4.5-15.5-.2L75.3 53.3c-1.8 1.8-4.8 1.8-6.6 0L45.9 30.4c-4.2-4.2-11.2-4.7-15.5-.6C26 34 25.9 41 30.2 45.3l23.2 23.2c1.8 1.8 1.8 4.8 0 6.6L30.5 98c-4.2 4.2-4.7 11.2-.6 15.5 4.2 4.4 11.2 4.5 15.5.2l23.2-23.2c1.8-1.8 4.8-1.8 6.6 0L98 113.3c4.2 4.2 11.2 4.7 15.5.6 4.4-4.2 4.5-11.2.2-15.5L90.6 75.2c-1.8-1.8-1.8-4.8 0-6.6z" />
  </svg>