<svg width="12" height="12" viewBox="0 0 12 12" fill="none" xmlns="http://www.w3.org/2000/svg">
<g clip-path="url(#clip0_49_102)">
<path d="M10.3035 5.72853C9.57141 5.59278 8.65176 5.52038 7.84819 5.51133C8.59819 5.23079 9.43748 4.84165 10.0803 4.46156C11.5357 3.61088 11.491 3.18554 11.25 2.76925C11.0089 2.35296 10.6696 2.09957 9.21426 2.95025C8.57141 3.33034 7.81248 3.87332 7.19641 4.38916C7.58926 3.68328 7.98212 2.84165 8.24105 2.12672C8.81248 0.533959 8.50891 0.226266 8.06248 0.0633704C7.61605 -0.0995256 7.19641 -0.0633264 6.61605 1.52943C6.35712 2.24437 6.12498 3.14934 5.98212 3.94572C5.83926 3.14934 5.60712 2.24437 5.34819 1.52943C4.79462 -0.0633264 4.36605 -0.0995256 3.91962 0.0633704C3.47319 0.226266 3.16962 0.524909 3.74105 2.12672C3.99998 2.84165 4.39283 3.68328 4.78569 4.38916C4.16962 3.87332 3.41962 3.33034 2.76783 2.95025C1.31248 2.09957 0.973192 2.35296 0.73212 2.76925C0.491049 3.18554 0.455335 3.61088 1.90176 4.46156C2.54462 4.84165 3.38391 5.23079 4.13391 5.51133C3.33033 5.51133 2.41069 5.59278 1.67855 5.72853C0.0446202 6.02717 -0.0625227 6.44346 0.0178345 6.91405C0.0981916 7.38464 0.339263 7.74663 1.99105 7.44799C2.72319 7.31224 3.61605 7.0679 4.36605 6.7964C3.75891 7.32129 3.09819 7.98192 2.61605 8.56111C1.53569 9.86428 1.72319 10.2534 2.08926 10.5611C2.45533 10.8688 2.86605 10.9864 3.93748 9.68328C4.41962 9.10409 4.93748 8.33486 5.34819 7.63803C5.21426 8.43441 5.12498 9.36654 5.12498 10.1267C5.12498 11.8281 5.50891 12 5.98212 12C6.45533 12 6.83926 11.819 6.83926 10.1267C6.83926 9.36654 6.74998 8.44346 6.61605 7.63803C7.01783 8.33486 7.54462 9.10409 8.02676 9.68328C9.10712 10.9864 9.50891 10.8688 9.87498 10.5611C10.241 10.2534 10.4196 9.86428 9.34819 8.56111C8.86605 7.98192 8.21426 7.32129 7.59819 6.7964C8.34819 7.0679 9.24105 7.31224 9.97319 7.44799C11.625 7.74663 11.866 7.38464 11.9464 6.91405C12.0268 6.44346 11.9196 6.02717 10.2678 5.72853H10.3035ZM5.99998 6.91405C5.41962 6.91405 4.94641 6.43441 4.94641 5.84618C4.94641 5.25794 5.41962 4.7783 5.99998 4.7783C6.58033 4.7783 7.05355 5.25794 7.05355 5.84618C7.05355 6.43441 6.58033 6.91405 5.99998 6.91405Z" fill="#483F32"/>
</g>
<defs>
<clipPath id="clip0_49_102">
<rect width="12" height="12" fill="white"/>
</clipPath>
</defs>
</svg>
