<svg width="20" height="20" viewBox="0 0 20 20" fill="none" xmlns="http://www.w3.org/2000/svg">
<path d="M18.5472 4.63042C14.6291 -0.369601 5.57829 -0.444544 1.57174 4.48246C-0.59775 7.14965 -0.515121 10.6835 1.7812 13.245C2.42494 13.9637 3.1417 14.6093 4.00065 15.0532C4.49259 15.3069 4.6098 15.5855 4.43878 16.1101C4.18129 16.898 4.00258 17.7108 3.79504 18.5121C3.74124 18.7216 3.59135 18.9541 3.80465 19.1366C4.05062 19.3499 4.28505 19.1789 4.49643 19.0367C5.53025 18.3411 6.57369 17.657 7.59022 16.9364C8.03603 16.6212 8.47992 16.5252 9.02181 16.579C11.4065 16.8153 13.6798 16.383 15.7667 15.2012C18.2782 13.7753 19.9154 11.7423 20 8.71768C20.0057 7.17463 19.485 5.82374 18.5511 4.63234L18.5472 4.63042Z" fill="#1D1D1F"/>
</svg>
