<svg width="16" height="16" viewBox="0 0 16 16" fill="none" xmlns="http://www.w3.org/2000/svg">
<path fill-rule="evenodd" clip-rule="evenodd" d="M10 1H6C3.23858 1 1 3.23858 1 6V10C1 12.7614 3.23858 15 6 15H10C12.7614 15 15 12.7614 15 10V6C15 3.23858 12.7614 1 10 1ZM6 0C2.68629 0 0 2.68629 0 6V10C0 13.3137 2.68629 16 6 16H10C13.3137 16 16 13.3137 16 10V6C16 2.68629 13.3137 0 10 0H6Z" fill="#DDD0C4"/>
<path fill-rule="evenodd" clip-rule="evenodd" d="M4 11L11 4L11.7071 4.70711L4.70711 11.7071L4 11Z" fill="#DDD0C4"/>
<path fill-rule="evenodd" clip-rule="evenodd" d="M5 4L12 11L11.2929 11.7071L4.29289 4.70711L5 4Z" fill="#DDD0C4"/>
</svg>
