<svg width="20" height="20" viewBox="0 0 20 20" fill="none" xmlns="http://www.w3.org/2000/svg">
<path d="M17.1332 0H8.71904C7.31426 0 6.17596 1.13831 6.17596 2.54308V2.62129H3.54453C2.13975 2.62129 1 3.76104 1 5.16582V17.4555C1 18.8602 2.13975 20 3.54453 20H11.924C13.3287 20 14.4685 18.8602 14.4685 17.4555H17.1332C18.538 17.4555 19.6763 16.3172 19.6763 14.9124V2.54308C19.6763 1.13831 18.538 0 17.1332 0ZM11.4634 18.2621H4.00362C3.30413 18.2621 2.73787 17.6944 2.73787 16.9964V5.62491C2.73787 4.92542 3.30558 4.35916 4.00362 4.35916H11.4634C12.1629 4.35916 12.7292 4.92686 12.7292 5.62491V16.9949C12.7292 17.6944 12.1615 18.2607 11.4634 18.2607V18.2621ZM16.6959 15.7176H14.4671V5.16582C14.4671 3.76104 13.3273 2.62129 11.9225 2.62129H7.91238C7.91238 2.13324 8.30775 1.73787 8.7958 1.73787H16.6959C17.3823 1.73787 17.9384 2.29399 17.9384 2.98045V14.475C17.9384 15.1615 17.3823 15.7176 16.6959 15.7176Z" fill="white"/>
</svg>
